<svg xmlns="http://www.w3.org/2000/svg" viewBox="172.88 218.35 249.52 249.52">
  <rect x="172.88" y="218.35" width="249.52" height="249.52" fill="#ffffff"/>
  
  <g>
    <polyline points="217.85 302.07 224.37 302.07 224.37 307.17 230.24 307.17 230.24 312.28 224.37 312.28 224.37 319.94 217.85 319.94" fill="none" stroke="#000000" stroke-width="1.6" stroke-linecap="round" stroke-linejoin="round" />
    <line x1="377.19" y1="403.94" x2="217.85" y2="403.94" fill="none" stroke="#000000" stroke-width="1.6" stroke-linecap="round" stroke-linejoin="round" />
    <path d="M217.85,298.49h13.92v-14.04h2.81v-3.32h4.59l2.56-22.47h3.32v-5.61h64.59v3.06s4.6,1.02,5.36-2.81h3.32v5.11h5.88v3.06h11.74v2.81h9.45v-4.09h4.85v-7.14h8.68v5.61h11.23v13.53h3.58v8.69h3.46" fill="none" stroke="#000000" stroke-width="1.6" stroke-linecap="round" stroke-linejoin="round" />
    <rect x="254.23" y="282.4" fill="none" stroke="#000000" stroke-width="1.6" stroke-linecap="round" stroke-linejoin="round" />
    <rect x="287.68" y="282.4" fill="none" stroke="#000000" stroke-width="1.6" stroke-linecap="round" stroke-linejoin="round" />
    <rect x="321.13" y="282.4" fill="none" stroke="#000000" stroke-width="1.6" stroke-linecap="round" stroke-linejoin="round" />
    <rect x="360.7" y="273.98" fill="none" stroke="#000000" stroke-width="1.6" stroke-linecap="round" stroke-linejoin="round" />
    <line x1="230.23" y1="312.28" x2="343.34" y2="312.28" fill="none" stroke="#000000" stroke-width="1.6" stroke-linecap="round" stroke-linejoin="round" />
    <line x1="343.34" y1="317.13" x2="224.87" y2="317.13" fill="none" stroke="#000000" stroke-width="1.6" stroke-linecap="round" stroke-linejoin="round" />
    <rect x="343.51" y="311.68" fill="none" stroke="#000000" stroke-width="1.6" stroke-linecap="round" stroke-linejoin="round" />
    <line x1="343.51" y1="315.94" x2="354.06" y2="315.94" fill="none" stroke="#000000" stroke-width="1.6" stroke-linecap="round" stroke-linejoin="round" />
    <line x1="343.85" y1="320.19" x2="354.06" y2="320.19" fill="none" stroke="#000000" stroke-width="1.6" stroke-linecap="round" stroke-linejoin="round" />
    <polyline points="257.3 403.94 257.3 340.36 299.94 340.36 299.94 403.43" fill="none" stroke="#000000" stroke-width="1.6" stroke-linecap="round" stroke-linejoin="round" />
    <polyline points="294.27 403.43 294.27 346.03 262.97 346.03 262.97 403.94" fill="none" stroke="#000000" stroke-width="1.6" stroke-linecap="round" stroke-linejoin="round" />
    <polygon points="304.79 334.49 252.45 334.49 248.11 329.64 309.13 329.64 304.79 334.49" fill="none" stroke="#000000" stroke-width="1.6" stroke-linecap="round" stroke-linejoin="round" />
    <g>
      <polygon points="374.98 388.08 397.82 388.08 395.62 392.56 395.62 410.16 377.19 410.16 377.19 392.56 374.98 388.08" fill="none" stroke="#000000" stroke-width="1.6" stroke-linecap="round" stroke-linejoin="round" />
      <rect x="373.72" y="410.16" fill="none" stroke="#000000" stroke-width="1.6" stroke-linecap="round" stroke-linejoin="round" />
      <polyline points="395.62 254.83 395.62 383.61 397.82 388.08 374.98 388.08 377.19 383.61 377.19 254.83" fill="none" stroke="#000000" stroke-width="1.6" stroke-linecap="round" stroke-linejoin="round" />
      <polygon points="397.62 254.83 386.4 254.83 385.25 254.83 375.18 254.83 370.83 247.39 370.83 242.91 386.4 242.91 401.98 242.91 401.98 247.39 397.62 254.83" fill="none" stroke="#000000" stroke-width="1.6" stroke-linecap="round" stroke-linejoin="round" />
    </g>
    <g>
      <polygon points="197.21 388.08 220.05 388.08 217.85 392.56 217.85 410.16 199.42 410.16 199.42 392.56 197.21 388.08" fill="none" stroke="#000000" stroke-width="1.6" stroke-linecap="round" stroke-linejoin="round" />
      <rect x="195.95" y="410.16" fill="none" stroke="#000000" stroke-width="1.6" stroke-linecap="round" stroke-linejoin="round" />
      <polyline points="217.85 254.83 217.85 383.61 220.05 388.08 197.21 388.08 199.42 383.61 199.42 254.83" fill="none" stroke="#000000" stroke-width="1.6" stroke-linecap="round" stroke-linejoin="round" />
      <polygon points="219.85 254.83 208.63 254.83 207.48 254.83 197.41 254.83 193.06 247.39 193.06 242.91 208.63 242.91 224.21 242.91 224.21 247.39 219.85 254.83" fill="none" stroke="#000000" stroke-width="1.6" stroke-linecap="round" stroke-linejoin="round" />
    </g>
    <line x1="396.06" y1="399.85" x2="421.6" y2="399.85" fill="none" stroke="#000000" stroke-width="1.6" stroke-linecap="round" stroke-linejoin="round" />
    <line x1="173.68" y1="399.85" x2="199.21" y2="399.85" fill="none" stroke="#000000" stroke-width="1.6" stroke-linecap="round" stroke-linejoin="round" />
  </g>
  <line x1="254.11" y1="426.77" x2="345.48" y2="426.77" fill="none" stroke="#000000" stroke-width="1.6" stroke-linecap="round" stroke-linejoin="round" />
  <line x1="409.51" y1="443.32" x2="386.49" y2="443.32" fill="none" stroke="#000000" stroke-width="1.6" stroke-linecap="round" stroke-linejoin="round" />
  <line x1="233.25" y1="437.57" x2="210.23" y2="437.57" fill="none" stroke="#000000" stroke-width="1.6" stroke-linecap="round" stroke-linejoin="round" />
</svg>