<svg xmlns="http://www.w3.org/2000/svg" viewBox="0 0 1.921836 1.686386">
<path fill="currentColor" d="M1.682,1.094 L1.713,1.086 L1.708,1.071 L1.720,1.045 L1.655,0.769 L1.834,0.395 L1.833,0.382 L1.824,0.367 L1.789,0.343 L1.700,0.316 L1.668,0.302 L1.648,0.298 L1.598,0.308 L1.565,0.300 L1.547,0.287 L1.499,0.235 L1.491,0.207 L1.473,0.178 L1.469,0.162 L1.392,0.167 L1.243,0.190 L1.158,0.172 L1.096,0.154 L1.051,0.149 L0.923,0.158 L0.776,0.152 L0.761,0.148 L0.721,0.124 L0.661,0.077 L0.664,0.105 L0.673,0.113 L0.664,0.128 L0.678,0.143 L0.692,0.145 L0.700,0.173 L0.688,0.184 L0.651,0.192 L0.646,0.185 L0.617,0.176 L0.610,0.187 L0.617,0.201 L0.637,0.217 L0.640,0.233 L0.633,0.244 L0.667,0.258 L0.676,0.247 L0.665,0.213 L0.702,0.210 L0.700,0.221 L0.709,0.222 L0.734,0.207 L0.744,0.206 L0.743,0.218 L0.751,0.216 L0.748,0.221 L0.736,0.221 L0.724,0.236 L0.718,0.266 L0.701,0.297 L0.711,0.306 L0.712,0.316 L0.699,0.330 L0.686,0.361 L0.688,0.375 L0.707,0.381 L0.702,0.396 L0.688,0.403 L0.686,0.411 L0.696,0.422 L0.697,0.437 L0.689,0.439 L0.685,0.446 L0.674,0.446 L0.675,0.455 L0.668,0.458 L0.671,0.465 L0.665,0.487 L0.672,0.491 L0.676,0.511 L0.669,0.515 L0.677,0.519 L0.668,0.531 L0.675,0.544 L0.658,0.554 L0.662,0.574 L0.602,0.597 L0.602,0.573 L0.574,0.571 L0.564,0.601 L0.559,0.600 L0.557,0.614 L0.575,0.626 L0.575,0.640 L0.554,0.655 L0.540,0.655 L0.536,0.624 L0.508,0.620 L0.443,0.627 L0.453,0.647 L0.473,0.664 L0.465,0.698 L0.436,0.705 L0.410,0.700 L0.404,0.695 L0.407,0.683 L0.393,0.659 L0.380,0.654 L0.361,0.630 L0.365,0.616 L0.374,0.615 L0.380,0.601 L0.374,0.591 L0.367,0.589 L0.357,0.577 L0.342,0.579 L0.305,0.565 L0.234,0.554 L0.234,0.582 L0.222,0.595 L0.154,0.615 L0.119,0.684 L0.095,0.711 L0.089,0.725 L0.087,0.748 L0.094,0.786 L0.109,0.804 L0.153,0.840 L0.168,0.862 L0.212,0.891 L0.212,0.907 L0.194,0.942 L0.173,0.962 L0.173,0.974 L0.159,1.004 L0.154,1.021 L0.172,1.027 L0.179,1.020 L0.207,1.023 L0.181,1.062 L0.210,1.074 L0.195,1.132 L0.237,1.144 L0.235,1.207 L0.253,1.242 L0.253,1.254 L0.349,1.289 L0.347,1.325 L0.322,1.354 L0.303,1.391 L0.262,1.425 L0.243,1.475 L0.335,1.477 L0.401,1.469 L0.486,1.468 L0.553,1.471 L0.713,1.486 L0.928,1.522 L1.050,1.556 L1.099,1.562 L1.186,1.581 L1.200,1.578 L1.213,1.581 L1.227,1.585 L1.230,1.598 L1.272,1.610 L1.468,1.345 L1.649,1.121 L1.682,1.094 Z"/>
</svg>